<svg width="32" height="32" viewBox="0 0 32 32" fill="none" xmlns="http://www.w3.org/2000/svg">
    <g clip-path="url(#csl4lfm1pa)">
        <path d="M.5 16C.5 7.44 7.44.5 16 .5 24.56.5 31.5 7.44 31.5 16c0 8.56-6.94 15.5-15.5 15.5C7.44 31.5.5 24.56.5 16z" fill="#EFF6FF"/>
        <path d="M.5 16C.5 7.44 7.44.5 16 .5 24.56.5 31.5 7.44 31.5 16c0 8.56-6.94 15.5-15.5 15.5C7.44 31.5.5 24.56.5 16z" stroke="#E2E8F0"/>
        <path d="M11.77 10.364h1.409v8.318c0 .742-.136 1.373-.41 1.892a2.78 2.78 0 0 1-1.152 1.182c-.497.269-1.082.403-1.756.403-.637 0-1.203-.115-1.7-.346a2.8 2.8 0 0 1-1.17-1c-.284-.432-.426-.946-.426-1.54h1.387c0 .33.081.617.244.863.167.243.394.432.682.569.288.136.615.204.983.204.405 0 .75-.085 1.034-.256.284-.17.5-.42.648-.75.151-.333.227-.74.227-1.221v-8.318zM19.594 22h-3.591V10.364h3.75c1.129 0 2.095.233 2.898.698.803.463 1.418 1.127 1.846 1.995.428.864.642 1.897.642 3.102 0 1.212-.216 2.256-.648 3.13a4.615 4.615 0 0 1-1.886 2.012c-.826.466-1.83.699-3.011.699zm-2.182-1.25h2.09c.963 0 1.76-.186 2.393-.557a3.431 3.431 0 0 0 1.415-1.585c.31-.686.466-1.502.466-2.449 0-.94-.154-1.748-.46-2.426a3.394 3.394 0 0 0-1.376-1.568c-.61-.368-1.369-.551-2.278-.551h-2.25v9.136z" fill="#2563EB"/>
    </g>
    <defs>
        <clipPath id="csl4lfm1pa">
            <path d="M0 16C0 7.163 7.163 0 16 0s16 7.163 16 16-7.163 16-16 16S0 24.837 0 16z" fill="#fff"/>
        </clipPath>
    </defs>
</svg>
