<svg width="14" height="14" viewBox="0 0 14 14" fill="none" xmlns="http://www.w3.org/2000/svg">
    <path d="M7 10.5a.677.677 0 0 0 .499-.201A.677.677 0 0 0 7.7 9.8a.677.677 0 0 0-.201-.499A.677.677 0 0 0 7 9.1a.677.677 0 0 0-.499.201.677.677 0 0 0-.201.499c0 .198.067.365.201.499s.3.201.499.201zm0-2.8a.677.677 0 0 0 .499-.201A.677.677 0 0 0 7.7 7V4.2a.677.677 0 0 0-.201-.499A.677.677 0 0 0 7 3.5a.677.677 0 0 0-.499.201.677.677 0 0 0-.201.499V7c0 .198.067.365.201.499s.3.201.499.201zM7 14a6.816 6.816 0 0 1-2.73-.551 7.069 7.069 0 0 1-2.222-1.496A7.069 7.069 0 0 1 .55 9.73 6.816 6.816 0 0 1 0 7c0-.968.184-1.878.551-2.73a7.069 7.069 0 0 1 1.496-2.222A7.069 7.069 0 0 1 4.27.55 6.816 6.816 0 0 1 7 0c.968 0 1.878.184 2.73.551a7.069 7.069 0 0 1 2.223 1.496c.63.63 1.128 1.371 1.496 2.223.367.852.551 1.762.551 2.73s-.184 1.878-.551 2.73a7.068 7.068 0 0 1-1.496 2.223 7.068 7.068 0 0 1-2.223 1.496A6.816 6.816 0 0 1 7 14z" fill="#EF4444"/>
</svg>
