<svg width="16" height="16" viewBox="0 0 16 16" fill="none" xmlns="http://www.w3.org/2000/svg">
    <g clip-path="url(#048ne4soha)" fill-rule="evenodd" clip-rule="evenodd" fill="#64748B">
        <path d="M8 .667c.368 0 .667.298.667.666v1.334a.667.667 0 0 1-1.334 0V1.333c0-.368.299-.666.667-.666zM2.815 2.815c.26-.26.683-.26.943 0l.94.94a.667.667 0 1 1-.943.943l-.94-.94a.667.667 0 0 1 0-.943zM12.667 8c0-.368.298-.667.666-.667h1.334a.667.667 0 1 1 0 1.334h-1.334A.667.667 0 0 1 12.667 8zM13.185 2.815c.26.26.26.683 0 .943l-.94.94a.667.667 0 1 1-.943-.943l.94-.94c.26-.26.682-.26.943 0zM6.352 5.102a3.333 3.333 0 0 1 4.937 3.44.667.667 0 0 1-1.315-.217A2 2 0 0 0 7.01 6.26a.667.667 0 1 1-.66-1.16zM5.306 8.744A2.667 2.667 0 1 0 4.666 14h4a1.334 1.334 0 0 0 0-2.667h-.733a.667.667 0 0 1-.653-.533 2.667 2.667 0 0 0-1.974-2.056zM3.4 7.54A4 4 0 0 1 8.439 10h.228a2.667 2.667 0 0 1 0 5.333h-4A4 4 0 0 1 3.4 7.54z"/>
    </g>
    <defs>
        <clipPath id="048ne4soha">
            <path fill="#fff" d="M0 0h16v16H0z"/>
        </clipPath>
    </defs>
</svg>
