<svg width="97" height="96" viewBox="0 0 97 96" fill="none" xmlns="http://www.w3.org/2000/svg">
    <path fill-rule="evenodd" clip-rule="evenodd" d="M8.5 16a8 8 0 0 1 8-8h20a8 8 0 0 1 8 8v28a8 8 0 0 1-8 8h-20a8 8 0 0 1-8-8V16zm28 0h-20v28h20V16zM52.5 16a8 8 0 0 1 8-8h20a8 8 0 0 1 8 8v12a8 8 0 0 1-8 8h-20a8 8 0 0 1-8-8V16zm28 0h-20v12h20V16zM52.5 52a8 8 0 0 1 8-8h20a8 8 0 0 1 8 8v28a8 8 0 0 1-8 8h-20a8 8 0 0 1-8-8V52zm28 0h-20v28h20V52zM8.5 68a8 8 0 0 1 8-8h20a8 8 0 0 1 8 8v12a8 8 0 0 1-8 8h-20a8 8 0 0 1-8-8V68zm28 0h-20v12h20V68z" fill="#64748B"/>
</svg>
